<svg width="50" height="50" viewBox="0 0 50 50" fill="none" xmlns="http://www.w3.org/2000/svg">
<path d="M42.7823 26.6915H38.9155C39.3096 27.7706 39.525 28.9351 39.525 30.1489V44.7632C39.525 45.2692 39.4369 45.755 39.2766 46.2067H45.6693C48.0573 46.2067 50 44.264 50 41.8761V33.9092C50.0001 29.9294 46.7622 26.6915 42.7823 26.6915Z" fill="#FFFCFC"/>
<path d="M10.4751 30.149C10.4751 28.9351 10.6905 27.7707 11.0846 26.6916H7.21779C3.2379 26.6916 0 29.9295 0 33.9093V41.8763C0 44.2641 1.94268 46.2069 4.33067 46.2069H10.7235C10.5632 45.755 10.4751 45.2693 10.4751 44.7633V30.149V30.149Z" fill="#FFFCFC"/>
<path d="M29.4201 22.9312H20.58C16.6001 22.9312 13.3622 26.1691 13.3622 30.149V44.7633C13.3622 45.5604 14.0085 46.2068 14.8058 46.2068H35.1943C35.9916 46.2068 36.6379 45.5605 36.6379 44.7633V30.149C36.6379 26.1691 33.4 22.9312 29.4201 22.9312Z" fill="#FFFCFC"/>
<path d="M25 3.79298C20.2137 3.79298 16.3198 7.68694 16.3198 12.4734C16.3198 15.72 18.1117 18.5554 20.758 20.0441C22.0131 20.7501 23.4602 21.1537 25 21.1537C26.5399 21.1537 27.987 20.7501 29.2421 20.0441C31.8885 18.5554 33.6803 15.7199 33.6803 12.4734C33.6803 7.68703 29.7864 3.79298 25 3.79298Z" fill="#FFFCFC"/>
<path d="M9.75764 11.8837C6.17805 11.8837 3.26593 14.7958 3.26593 18.3754C3.26593 21.955 6.17805 24.8671 9.75764 24.8671C10.6657 24.8671 11.5303 24.6791 12.3158 24.341C13.6738 23.7563 14.7935 22.7213 15.4864 21.4249C15.9727 20.5151 16.2494 19.4771 16.2494 18.3754C16.2494 14.7959 13.3372 11.8837 9.75764 11.8837Z" fill="#FFFCFC"/>
<path d="M40.2425 11.8837C36.6629 11.8837 33.7507 14.7958 33.7507 18.3754C33.7507 19.4772 34.0274 20.5152 34.5137 21.4249C35.2066 22.7214 36.3263 23.7564 37.6844 24.341C38.4698 24.6791 39.3345 24.8671 40.2425 24.8671C43.8221 24.8671 46.7342 21.955 46.7342 18.3754C46.7342 14.7958 43.8221 11.8837 40.2425 11.8837Z" fill="#FFFCFC"/>
</svg>
