<svg width="50" height="50" viewBox="0 0 50 50" fill="none" xmlns="http://www.w3.org/2000/svg">
<g clip-path="url(#clip0)">
<path d="M46.3541 16.6666H3.64587C1.64587 16.6666 0 18.3125 0 20.3125V46.3541C0 48.3541 1.64587 50 3.64587 50H46.3542C48.3542 50 50.0001 48.3541 50.0001 46.3541V20.3125C50 18.3125 48.3541 16.6666 46.3541 16.6666V16.6666ZM43.75 26.5625V40.1041C43.75 42.1041 42.125 43.75 40.1041 43.75H28.6459C26.625 43.75 25 42.1041 25 40.1041V26.5625C25 24.5625 26.625 22.9166 28.6459 22.9166H40.1042C42.125 22.9166 43.75 24.5625 43.75 26.5625V26.5625ZM19.2709 34.375H7.8125C6.95837 34.375 6.25 33.6666 6.25 32.8125C6.25 31.9584 6.95837 31.25 7.8125 31.25H19.2709C20.125 31.25 20.8334 31.9584 20.8334 32.8125C20.8334 33.6666 20.125 34.375 19.2709 34.375ZM20.8334 39.0625C20.8334 39.9166 20.125 40.625 19.2709 40.625H7.8125C6.95837 40.625 6.25 39.9166 6.25 39.0625C6.25 38.2084 6.95837 37.5 7.8125 37.5H19.2709C20.125 37.5 20.8334 38.2084 20.8334 39.0625ZM19.2709 28.125H7.8125C6.95837 28.125 6.25 27.4166 6.25 26.5625C6.25 25.7084 6.95837 25 7.8125 25H19.2709C20.125 25 20.8334 25.7084 20.8334 26.5625C20.8334 27.4166 20.125 28.125 19.2709 28.125Z" fill="#FFFDFD"/>
<path d="M46.3541 0H3.64587C1.63543 0 0 1.63543 0 3.64587V8.85423C0 10.8646 1.63543 12.5 3.64587 12.5H46.3542C48.3646 12.5 50 10.8646 50 8.85413V3.64587C50 1.63543 48.3646 0 46.3541 0V0Z" fill="#FFFDFD"/>
</g>
<defs>
<clipPath id="clip0">
<rect width="50" height="50" fill="white"/>
</clipPath>
</defs>
</svg>
