<svg width="50" height="50" viewBox="0 0 50 50" fill="none" xmlns="http://www.w3.org/2000/svg">
<g clip-path="url(#clip0)">
<path d="M50 36.4583V38.0208C50 38.4375 49.8334 38.8333 49.5417 39.125L39.125 49.5417C38.8333 49.8333 38.4375 50 38.0208 50H36.4583V38.0208C36.4583 37.1667 37.1667 36.4583 38.0208 36.4583H50Z" fill="white"/>
<path d="M44.2708 10.4167H28.6458V15.1042C28.6458 17.1146 27.0104 18.75 25 18.75C22.9896 18.75 21.3542 17.1146 21.3542 15.1042V10.4167H5.72917C2.5625 10.4167 0 12.9792 0 16.1458V44.2708C0 47.4375 2.5625 50 5.72917 50H34.375V38.0208C34.375 36.0104 36.0104 34.375 38.0208 34.375H50V16.1458C50 12.9792 47.4375 10.4167 44.2708 10.4167ZM29.1667 40.625H9.89583C9.03333 40.625 8.33333 39.925 8.33333 39.0625C8.33333 38.2 9.03333 37.5 9.89583 37.5H29.1667C30.0292 37.5 30.7292 38.2 30.7292 39.0625C30.7292 39.925 30.0292 40.625 29.1667 40.625ZM40.1042 32.2917H9.89583C9.03333 32.2917 8.33333 31.5917 8.33333 30.7292C8.33333 29.8667 9.03333 29.1667 9.89583 29.1667H40.1042C40.9667 29.1667 41.6667 29.8667 41.6667 30.7292C41.6667 31.5917 40.9667 32.2917 40.1042 32.2917ZM40.1042 23.9583H9.89583C9.03333 23.9583 8.33333 23.2583 8.33333 22.3958C8.33333 21.5333 9.03333 20.8333 9.89583 20.8333H40.1042C40.9667 20.8333 41.6667 21.5333 41.6667 22.3958C41.6667 23.2583 40.9667 23.9583 40.1042 23.9583Z" fill="white"/>
<path d="M25 16.6667C24.1375 16.6667 23.4375 15.9667 23.4375 15.1042V7.29167C23.4375 6.42917 24.1375 5.72917 25 5.72917C25.8625 5.72917 26.5625 6.42917 26.5625 7.29167V15.1042C26.5625 15.9667 25.8625 16.6667 25 16.6667Z" fill="white"/>
<path d="M25 8.33333C22.7021 8.33333 20.8333 6.46458 20.8333 4.16667C20.8333 1.86875 22.7021 0 25 0C27.2979 0 29.1667 1.86875 29.1667 4.16667C29.1667 6.46458 27.2979 8.33333 25 8.33333Z" fill="white"/>
</g>
<defs>
<clipPath id="clip0">
<rect width="50" height="50" fill="white"/>
</clipPath>
</defs>
</svg>
